<svg width="109" height="108" viewBox="0 0 109 108" fill="none" xmlns="http://www.w3.org/2000/svg">
<path d="M108.255 54C108.255 83.544 84.1367 107.5 54.3776 107.5C24.6185 107.5 0.5 83.544 0.5 54C0.5 24.456 24.6185 0.5 54.3776 0.5C84.1367 0.5 108.255 24.456 108.255 54Z" stroke="#DB2D2E"/>
<path d="M70.2228 39.2656C70.2228 36.2526 69.3231 33.3071 67.6374 30.8019C65.9518 28.2966 63.5558 26.344 60.7526 25.1909C57.9495 24.0379 54.8649 23.7362 51.8891 24.324C48.9132 24.9118 46.1797 26.3627 44.0343 28.4933C41.8888 30.6239 40.4277 33.3384 39.8358 36.2936C39.2439 39.2487 39.5477 42.3119 40.7088 45.0956C41.8699 47.8793 43.8362 50.2586 46.359 51.9326C48.8818 53.6065 51.8478 54.5 54.8819 54.5C58.9492 54.4954 62.8485 52.8889 65.7245 50.0329C68.6005 47.1769 70.2182 43.3046 70.2228 39.2656ZM54.8819 52.4688C52.2523 52.4688 49.6818 51.6944 47.4954 50.2436C45.3089 48.7929 43.6048 46.7308 42.5985 44.3182C41.5922 41.9057 41.3289 39.251 41.8419 36.6898C42.355 34.1287 43.6212 31.7761 45.4806 29.9296C47.34 28.0831 49.709 26.8256 52.2881 26.3162C54.8672 25.8068 57.5405 26.0682 59.9699 27.0675C62.3993 28.0668 64.4758 29.7591 65.9367 31.9304C67.3976 34.1016 68.1774 36.6543 68.1774 39.2656C68.1733 42.7661 66.7713 46.122 64.2788 48.5972C61.7863 51.0724 58.4069 52.4647 54.8819 52.4688Z" fill="#DB2D2E"/>
<path d="M54.8818 28.0938C52.6568 28.0938 50.4817 28.749 48.6317 29.9766C46.7816 31.2041 45.3397 32.9489 44.4882 34.9903C43.6367 37.0317 43.4139 39.278 43.848 41.4452C44.2821 43.6123 45.3535 45.6029 46.9269 47.1653C48.5002 48.7277 50.5048 49.7918 52.6871 50.2228C54.8694 50.6539 57.1314 50.4327 59.187 49.5871C61.2427 48.7415 62.9997 47.3096 64.2359 45.4724C65.472 43.6352 66.1318 41.4752 66.1318 39.2656C66.1283 36.3037 64.9419 33.4642 62.8329 31.3698C60.7239 29.2754 57.8644 28.0972 54.8818 28.0938ZM54.8818 48.4062C53.0614 48.4062 51.2817 47.8702 49.7681 46.8658C48.2544 45.8614 47.0746 44.4338 46.3779 42.7636C45.6813 41.0934 45.499 39.2555 45.8542 37.4824C46.2093 35.7093 47.086 34.0806 48.3732 32.8022C49.6605 31.5239 51.3006 30.6533 53.0861 30.3006C54.8716 29.9479 56.7224 30.129 58.4043 30.8208C60.0862 31.5126 61.5237 32.6842 62.5351 34.1874C63.5465 35.6905 64.0864 37.4578 64.0864 39.2656C64.0834 41.689 63.1127 44.0122 61.3871 45.7258C59.6616 47.4393 57.3221 48.4033 54.8818 48.4062Z" fill="#DB2D2E"/>
<path d="M54.8817 36.2188C56.1304 36.2188 56.9271 36.82 56.9271 37.2344C56.9271 37.5037 57.0349 37.7621 57.2267 37.9525C57.4185 38.143 57.6786 38.25 57.9499 38.25C58.2211 38.25 58.4812 38.143 58.673 37.9525C58.8648 37.7621 58.9726 37.5037 58.9726 37.2344C58.9726 35.7912 57.685 34.6232 55.9044 34.2891V33.1719C55.9044 32.9025 55.7967 32.6442 55.6049 32.4537C55.4131 32.2633 55.1529 32.1562 54.8817 32.1562C54.6104 32.1562 54.3503 32.2633 54.1585 32.4537C53.9667 32.6442 53.8589 32.9025 53.8589 33.1719V34.2891C52.0784 34.6212 50.7908 35.7891 50.7908 37.2344C50.7908 38.9427 52.5877 40.2812 54.8817 40.2812C56.1304 40.2812 56.9271 40.8825 56.9271 41.2969C56.9271 41.7113 56.1304 42.3125 54.8817 42.3125C53.6329 42.3125 52.8362 41.7113 52.8362 41.2969C52.8362 41.0275 52.7285 40.7692 52.5367 40.5787C52.3449 40.3883 52.0847 40.2812 51.8135 40.2812C51.5422 40.2812 51.2821 40.3883 51.0903 40.5787C50.8985 40.7692 50.7908 41.0275 50.7908 41.2969C50.7908 42.7401 52.0784 43.908 53.8589 44.2422V45.3594C53.8589 45.6287 53.9667 45.8871 54.1585 46.0775C54.3503 46.268 54.6104 46.375 54.8817 46.375C55.1529 46.375 55.4131 46.268 55.6049 46.0775C55.7967 45.8871 55.9044 45.6287 55.9044 45.3594V44.2422C57.685 43.9101 58.9726 42.7421 58.9726 41.2969C58.9726 39.5886 57.1757 38.25 54.8817 38.25C53.6329 38.25 52.8362 37.6487 52.8362 37.2344C52.8362 36.82 53.6329 36.2188 54.8817 36.2188ZM83.2419 40.6469C83.2626 40.4682 83.2728 40.2885 83.2726 40.1086C83.2676 39.1776 82.9424 38.2763 82.3509 37.5541C81.7594 36.8318 80.9371 36.332 80.0203 36.1375C78.9835 35.9435 77.9111 36.1468 77.0192 36.7065C76.1273 37.2662 75.4821 38.1407 75.2135 39.1539L70.7135 52.0117C70.6468 52.038 70.5819 52.0685 70.5192 52.1031L61.4783 57.3641C60.0948 58.1711 58.9473 59.3225 58.1492 60.7047C57.351 62.0869 56.9298 63.652 56.9271 65.2453V76.8438C56.6559 76.8438 56.3958 76.9508 56.204 77.1412C56.0122 77.3317 55.9044 77.59 55.9044 77.8594V83.9531C55.9044 84.2225 56.0122 84.4808 56.204 84.6713C56.3958 84.8617 56.6559 84.9688 56.9271 84.9688H71.2453C71.5166 84.9688 71.7767 84.8617 71.9685 84.6713C72.1603 84.4808 72.268 84.2225 72.268 83.9531V77.8594C72.268 77.59 72.1603 77.3317 71.9685 77.1412C71.7767 76.9508 71.5166 76.8438 71.2453 76.8438V72.5781C71.2472 72.1492 71.3392 71.7253 71.5153 71.3336C71.6913 70.9419 71.9477 70.5909 72.268 70.3031L79.1817 64.1992C79.9379 63.5421 80.4792 62.6756 80.7362 61.7109L85.1749 45.2273C85.2696 44.8831 85.3178 44.5279 85.318 44.1711C85.314 43.4544 85.12 42.7513 84.7556 42.1327C84.3911 41.514 83.8691 41.0016 83.2419 40.6469ZM77.1669 39.7531C77.2924 39.2279 77.6127 38.7689 78.0638 38.4678C78.515 38.1666 79.0638 38.0453 79.601 38.1281C80.0594 38.2235 80.471 38.4721 80.767 38.8326C81.0629 39.1931 81.2254 39.6435 81.2271 40.1086V40.1188C80.313 40.139 79.4304 40.4542 78.7126 41.0168C77.9949 41.5793 77.481 42.3585 77.2487 43.2367L74.3953 51.9813C73.9651 51.7731 73.5011 51.6424 73.0249 51.5953L77.1669 39.7531ZM70.2226 82.9375H57.9499V78.875H70.2226V82.9375ZM83.201 44.6992L78.7521 61.193C78.5982 61.7661 78.2781 62.2817 77.8317 62.6758L70.9078 68.7797C70.372 69.2595 69.9433 69.8453 69.6492 70.4995C69.355 71.1536 69.202 71.8617 69.1999 72.5781V76.8438H58.9726V65.2453C58.9777 64.0062 59.3064 62.7896 59.9266 61.7143C60.5469 60.6391 61.4374 59.7421 62.5112 59.1109L71.5419 53.8602C71.7747 53.7254 72.0321 53.6377 72.2992 53.6021C72.5663 53.5664 72.8378 53.5836 73.0982 53.6525C73.3586 53.7214 73.6027 53.8407 73.8166 54.0035C74.0304 54.1664 74.2097 54.3697 74.3442 54.6016C74.6098 55.0708 74.6831 55.6238 74.5487 56.1453C74.4777 56.4028 74.3562 56.6439 74.1912 56.8548C74.0263 57.0657 73.8211 57.2422 73.5874 57.3742L67.7271 60.7359C67.5045 60.8765 67.3452 61.097 67.2824 61.3514C67.2197 61.6058 67.2583 61.8745 67.3904 62.1013C67.5224 62.3281 67.7375 62.4955 67.9908 62.5684C68.2442 62.6414 68.5161 62.6144 68.7499 62.493L74.6101 59.1313C75.0785 58.8673 75.489 58.513 75.8175 58.0892C76.1459 57.6653 76.3857 57.1805 76.5226 56.6633C76.801 55.6241 76.6539 54.5178 76.1135 53.5859L76.0521 53.4945L79.2124 43.8156C79.3379 43.2904 79.6582 42.8314 80.1093 42.5303C80.5604 42.2291 81.1093 42.1078 81.6464 42.1906C82.1049 42.286 82.5164 42.5346 82.8124 42.8951C83.1084 43.2556 83.2708 43.706 83.2726 44.1711C83.276 44.3497 83.2519 44.5278 83.201 44.6992ZM52.8362 76.8438V65.2453C52.8336 63.652 52.4124 62.0869 51.6142 60.7047C50.816 59.3225 49.6685 58.1711 48.2851 57.3641L39.2442 52.093C39.1828 52.0625 39.1112 52.0422 39.0499 52.0117L34.5805 39.225C34.3196 38.1945 33.673 37.3015 32.7724 36.7279C31.8717 36.1543 30.7847 35.9432 29.7328 36.1375C28.818 36.3342 27.9981 36.8349 27.4087 37.557C26.8192 38.279 26.4954 39.1791 26.4908 40.1086C26.4905 40.2885 26.5007 40.4682 26.5214 40.6469C25.8943 41.0016 25.3722 41.514 25.0078 42.1327C24.6433 42.7513 24.4493 43.4544 24.4453 44.1711C24.4473 44.5272 24.4919 44.8817 24.5783 45.2273L29.0271 61.7008C29.2814 62.6695 29.823 63.54 30.5817 64.1992L37.4851 70.3031C37.8086 70.5889 38.0678 70.9393 38.2458 71.3313C38.4238 71.7233 38.5165 72.1481 38.518 72.5781V76.8438C38.2468 76.8438 37.9867 76.9508 37.7949 77.1412C37.6031 77.3317 37.4953 77.59 37.4953 77.8594V83.9531C37.4953 84.2225 37.6031 84.4808 37.7949 84.6713C37.9867 84.8617 38.2468 84.9688 38.518 84.9688H52.8362C53.1075 84.9688 53.3676 84.8617 53.5594 84.6713C53.7512 84.4808 53.8589 84.2225 53.8589 83.9531V77.8594C53.8589 77.59 53.7512 77.3317 53.5594 77.1412C53.3676 76.9508 53.1075 76.8438 52.8362 76.8438ZM28.5362 40.1086C28.5375 39.6449 28.6985 39.1956 28.9924 38.8353C29.2864 38.4751 29.6956 38.2255 30.1521 38.1281C30.7042 38.0476 31.2665 38.1778 31.7257 38.4925C32.185 38.8072 32.5071 39.2831 32.6271 39.8242L36.7385 51.5953C36.5353 51.6101 36.3335 51.6407 36.1351 51.6867C35.8701 51.7591 35.6131 51.8578 35.368 51.9813L32.5351 43.2875C32.3045 42.4011 31.7896 41.6134 31.0681 41.0435C30.3466 40.4736 29.4578 40.1526 28.5362 40.1289V40.1086ZM38.8453 68.7797L31.9317 62.6758C31.4828 62.2796 31.1624 61.76 31.0112 61.1828L26.5624 44.6992C26.5115 44.5278 26.4873 44.3497 26.4908 44.1711C26.492 43.7074 26.653 43.2581 26.947 42.8978C27.2409 42.5376 27.6502 42.288 28.1067 42.1906C28.6544 42.1109 29.2124 42.2391 29.6692 42.5497C30.126 42.8603 30.4482 43.3304 30.5714 43.8664L33.7112 53.4945C33.6944 53.5272 33.6738 53.5579 33.6499 53.5859C33.1092 54.5194 32.9639 55.6278 33.2458 56.6676C33.5277 57.7074 34.2138 58.5935 35.1533 59.1313L41.0135 62.493C41.2472 62.6144 41.5192 62.6414 41.7725 62.5684C42.0258 62.4955 42.241 62.3281 42.373 62.1013C42.505 61.8745 42.5437 61.6058 42.4809 61.3514C42.4182 61.097 42.2588 60.8765 42.0362 60.7359L36.176 57.3742C35.943 57.2415 35.7385 57.0645 35.5744 56.8534C35.4102 56.6422 35.2896 56.401 35.2193 56.1436C35.149 55.8861 35.1305 55.6174 35.1648 55.3528C35.1991 55.0882 35.2855 54.833 35.4192 54.6016C35.6925 54.1379 36.1382 53.7993 36.6604 53.6587C37.1826 53.5182 37.7395 53.5868 38.2112 53.85L47.2521 59.1109C48.3259 59.7421 49.2165 60.6391 49.8367 61.7143C50.457 62.7896 50.7857 64.0062 50.7908 65.2453V76.8438H40.5635V72.5781C40.5618 71.8607 40.4078 71.1516 40.1118 70.4972C39.8158 69.8427 39.3842 69.2575 38.8453 68.7797ZM51.8135 82.9375H39.5408V78.875H51.8135V82.9375Z" fill="#DB2D2E"/>
</svg>
