<svg width="109" height="108" viewBox="0 0 109 108" fill="none" xmlns="http://www.w3.org/2000/svg">
<path d="M108.255 54C108.255 83.544 84.1367 107.5 54.3776 107.5C24.6185 107.5 0.5 83.544 0.5 54C0.5 24.456 24.6185 0.5 54.3776 0.5C84.1367 0.5 108.255 24.456 108.255 54Z" stroke="#DB2D2E"/>
<g clip-path="url(#clip0_37_8979)">
<path d="M84.0303 49.1375L80.193 46.0886L80.147 46.049L83.7194 45.3391C83.9512 45.2932 84.1597 45.1689 84.3095 44.9874C84.4592 44.8059 84.541 44.5784 84.5407 44.3438V41.2969C84.5407 41.0275 84.4329 40.7692 84.2411 40.5787C84.0493 40.3883 83.7892 40.2812 83.5179 40.2812H78.4043C78.1331 40.2812 77.8729 40.3883 77.6811 40.5787C77.4893 40.7692 77.3816 41.0275 77.3816 41.2969V43.0763L77.311 42.9818C77.2461 42.8093 77.1337 42.6584 76.9868 42.5461C76.411 41.7366 75.918 40.9262 75.5969 40.2254L73.8685 36.4503C72.767 34.0423 69.8175 32.1562 67.1543 32.1562H42.6088C39.9457 32.1562 36.9961 34.0423 35.8946 36.4503L34.1673 40.2244C33.8461 40.9252 33.3532 41.7366 32.7774 42.5461C32.6307 42.6587 32.5184 42.8095 32.4532 42.9818L32.3826 43.0763V41.2969C32.3826 41.0275 32.2748 40.7692 32.083 40.5787C31.8912 40.3883 31.6311 40.2812 31.3599 40.2812H26.2452C25.974 40.2812 25.7138 40.3883 25.522 40.5787C25.3302 40.7692 25.2225 41.0275 25.2225 41.2969V44.3438C25.2225 44.8282 25.5661 45.2446 26.0448 45.3391L29.6171 46.049L29.5711 46.0886L25.7328 49.1375C23.7262 50.732 22.1543 53.98 22.1543 56.5312V73.7969C22.1543 75.4767 23.5309 76.8438 25.2225 76.8438H33.4043C35.0959 76.8438 36.4725 75.4767 36.4725 73.7969V71.7656H73.2907V73.7969C73.2907 75.4767 74.6673 76.8438 76.3588 76.8438H84.5407C86.2322 76.8438 87.6088 75.4767 87.6088 73.7969V56.5312C87.6088 53.98 86.0369 50.732 84.0303 49.1375ZM74.7368 69.7344L72.3917 67.4055C71.3966 66.4173 69.5843 65.6719 68.177 65.6719H41.0748C39.6675 65.6719 37.8552 66.4173 36.8601 67.4055L34.515 69.7344H27.2679C25.5763 69.7344 24.1998 68.3673 24.1998 66.6875V61.6094H25.2225V62.625C25.2225 64.8655 27.0573 66.6875 29.3134 66.6875H32.3816C32.6528 66.6875 32.9129 66.5805 33.1047 66.39C33.2965 66.1996 33.4043 65.9412 33.4043 65.6719C33.4043 65.4025 33.2965 65.1442 33.1047 64.9537C32.9129 64.7633 32.6528 64.6562 32.3816 64.6562H29.3134C28.1853 64.6562 27.2679 63.7452 27.2679 62.625V61.6094H29.3134C30.1623 61.6094 31.4816 62.1517 32.0819 62.7479C32.1767 62.8425 32.2893 62.9176 32.4134 62.9689C32.5375 63.0201 32.6706 63.0465 32.805 63.0465C32.9394 63.0465 33.0724 63.0201 33.1965 62.9689C33.3206 62.9176 33.4333 62.8425 33.528 62.7479C33.6231 62.6537 33.6985 62.5417 33.75 62.4185C33.8014 62.2953 33.8279 62.1632 33.8279 62.0298C33.8279 61.8965 33.8014 61.7644 33.75 61.6412C33.6985 61.518 33.6231 61.406 33.528 61.3118C32.5329 60.3236 30.7217 59.5781 29.3134 59.5781H24.1998V56.5312C24.1998 56.1727 24.257 55.7858 24.3378 55.3907C24.9924 56.0691 25.9445 56.5312 27.2679 56.5312H35.4498C35.721 56.5312 35.9811 56.4242 36.1728 56.2337L37.4952 54.9205L38.8176 56.2337C38.9124 56.3281 39.0251 56.403 39.1492 56.4541C39.2733 56.5052 39.4063 56.5314 39.5407 56.5312H51.39L54.1585 59.2805C54.2533 59.3752 54.3659 59.4503 54.49 59.5015C54.6141 59.5528 54.7472 59.5792 54.8816 59.5792C55.016 59.5792 55.149 59.5528 55.2731 59.5015C55.3972 59.4503 55.5099 59.3752 55.6046 59.2805L58.3732 56.5312H70.2225C70.4935 56.5312 70.7543 56.4246 70.9455 56.2337L72.2679 54.9205L73.5903 56.2337C73.6852 56.3281 73.7979 56.403 73.922 56.4541C74.046 56.5052 74.1791 56.5314 74.3134 56.5312H82.4952C83.8186 56.5312 84.7708 56.0691 85.4253 55.3907C85.5061 55.7858 85.5634 56.1727 85.5634 56.5312V59.5781H80.4497C79.0425 59.5781 77.2302 60.3236 76.2351 61.3118C76.1401 61.4061 76.0648 61.518 76.0134 61.6412C75.962 61.7644 75.9356 61.8965 75.9356 62.0298C75.9356 62.1632 75.962 62.2952 76.0134 62.4184C76.0648 62.5417 76.1401 62.6536 76.2351 62.7479C76.33 62.8422 76.4428 62.917 76.5668 62.968C76.6909 63.0191 76.8239 63.0453 76.9582 63.0453C77.0924 63.0453 77.2254 63.0191 77.3495 62.968C77.4735 62.917 77.5863 62.8422 77.6812 62.7479C78.2816 62.1517 79.6009 61.6094 80.4497 61.6094H82.4952V62.625C82.4952 63.7452 81.5778 64.6562 80.4497 64.6562H77.3816C77.1103 64.6562 76.8502 64.7633 76.6584 64.9537C76.4666 65.1442 76.3588 65.4025 76.3588 65.6719C76.3588 65.9412 76.4666 66.1996 76.6584 66.39C76.8502 66.5805 77.1103 66.6875 77.3816 66.6875H80.4497C82.7059 66.6875 84.5407 64.8655 84.5407 62.625V61.6094H85.5634V66.6875C85.5634 68.3673 84.1868 69.7344 82.4952 69.7344H74.7368ZM71.8445 69.7344H37.4073L38.3062 68.8416C38.9066 68.2455 40.2259 67.7031 41.0748 67.7031H68.177C69.0259 67.7031 70.3452 68.2455 70.9455 68.8416L71.8445 69.7344ZM33.977 44.3438H75.7861C76.7771 45.6448 77.9093 46.8757 78.9146 47.675L80.145 48.652L72.9112 51.5252L72.9092 51.5263C72.7817 51.5773 72.6659 51.6533 72.5686 51.7497L71.5459 52.7653L69.7991 54.5H57.9497C57.8154 54.4999 57.6824 54.5261 57.5583 54.5771C57.4342 54.6282 57.3215 54.7031 57.2267 54.7976L54.8816 57.1264L52.5365 54.7976C52.4416 54.7031 52.3289 54.6282 52.2048 54.5771C52.0807 54.5261 51.9477 54.4999 51.8134 54.5H39.9641L38.2183 52.7663L37.1955 51.7507C37.0983 51.6543 36.9825 51.5783 36.855 51.5273L36.8529 51.5263L29.6192 48.653L30.8495 47.676C31.8538 46.8757 32.986 45.6448 33.977 44.3438ZM84.4803 52.8943C84.2748 53.9556 83.612 54.5 82.4952 54.5H74.7368L73.7141 53.4844L73.8654 53.3341L81.9808 50.1105L82.7519 50.7239C83.4003 51.2388 83.9986 52.0219 84.4803 52.8943ZM79.427 42.3125H82.4952V43.5109L79.427 44.1203V42.3125ZM36.0276 41.0653L37.755 37.2912C38.5261 35.6084 40.7485 34.1875 42.6088 34.1875H67.1543C69.0146 34.1875 71.237 35.6084 72.0071 37.2902L73.7355 41.0653C73.9155 41.4573 74.1497 41.8809 74.4065 42.3125H35.3567C35.6134 41.8809 35.8486 41.4573 36.0276 41.0653ZM27.2679 42.3125H30.3361V44.1203L27.2679 43.5109V42.3125ZM27.0102 50.7239L27.7813 50.1105L35.8977 53.3341L36.0491 53.4844L35.0263 54.5H27.2679C26.1511 54.5 25.4884 53.9556 25.2828 52.8943C25.7645 52.0219 26.3618 51.2388 27.0102 50.7239ZM33.4043 74.8125H25.2225C24.659 74.8125 24.1998 74.3565 24.1998 73.7969V70.7246C25.08 71.396 26.158 71.7617 27.2679 71.7656H34.427V73.7969C34.427 74.3565 33.9678 74.8125 33.4043 74.8125ZM84.5407 74.8125H76.3588C75.7953 74.8125 75.3361 74.3565 75.3361 73.7969V71.7656H82.4952C83.6509 71.7656 84.7063 71.3685 85.5634 70.7246V73.7969C85.5634 74.3565 85.1042 74.8125 84.5407 74.8125Z" fill="#DB2D2E"/>
</g>
<defs>
<clipPath id="clip0_37_8979">
<rect width="65.4545" height="65" fill="white" transform="translate(22.1543 22)"/>
</clipPath>
</defs>
</svg>
