<svg width="109" height="108" viewBox="0 0 109 108" fill="none" xmlns="http://www.w3.org/2000/svg">
<path d="M108.255 54C108.255 83.544 84.1367 107.5 54.3776 107.5C24.6185 107.5 0.5 83.544 0.5 54C0.5 24.456 24.6185 0.5 54.3776 0.5C84.1367 0.5 108.255 24.456 108.255 54Z" stroke="#DB2D2E"/>
<g clip-path="url(#clip0_37_8988)">
<path d="M69.1665 77.3166L68.694 77.1552C69.0639 76.5971 69.3395 75.9827 69.5099 75.3363C76.1009 77.0897 82.5631 72.1475 82.5679 65.3895V59.3655C82.5653 54.7321 79.4217 50.6489 74.9238 49.4358C74.6445 49.3605 74.3466 49.3985 74.0956 49.5413C73.8445 49.6841 73.6609 49.9201 73.5851 50.1974C73.5093 50.4747 73.5475 50.7705 73.6913 51.0198C73.8351 51.2691 74.0728 51.4515 74.352 51.5268C77.9025 52.4843 80.3842 55.7082 80.3861 59.3663V65.389C80.3814 71.9744 72.8336 75.8817 67.4054 71.9803C67.2893 71.8968 67.1578 71.8369 67.0185 71.804C66.8791 71.771 66.7346 71.7656 66.5931 71.7882C66.4516 71.8107 66.316 71.8607 66.194 71.9352C66.072 72.0098 65.966 72.1075 65.882 72.2228C65.7124 72.4555 65.6428 72.7457 65.6886 73.0294C65.7344 73.313 65.8918 73.5671 66.1261 73.7355C66.5482 74.0386 66.9925 74.3099 67.4554 74.5471C67.3183 75.2406 66.9976 75.8854 66.5261 76.4149L64.0724 75.5769C63.3666 75.3364 62.7198 74.9507 62.1744 74.445C62.0696 74.3481 61.9465 74.2726 61.8122 74.223C61.6779 74.1733 61.5351 74.1504 61.392 74.1555C61.2488 74.1607 61.108 74.1938 60.9777 74.2529C60.8474 74.3121 60.7302 74.3962 60.6326 74.5004C60.4355 74.7107 60.3307 74.9902 60.3411 75.2773C60.3515 75.5644 60.4764 75.8357 60.6882 76.0314C60.9285 76.2524 61.1829 76.4578 61.4499 76.6462C59.1464 80.4059 54.2198 81.2038 50.808 79.0207C50.6876 78.942 50.5527 78.8877 50.411 78.8611C50.2694 78.8345 50.1238 78.836 49.9827 78.8656C49.8417 78.8951 49.7079 78.9522 49.5892 79.0334C49.4705 79.1146 49.3692 79.2184 49.2911 79.3387C49.213 79.4591 49.1597 79.5936 49.1343 79.7345C49.1089 79.8754 49.1118 80.02 49.143 80.1597C49.1742 80.2995 49.2329 80.4318 49.3159 80.5489C49.3988 80.666 49.5043 80.7656 49.6263 80.8419C54.1324 83.7256 60.5052 82.5434 63.3979 77.6378L68.4567 79.3656C70.6133 80.1021 72.0622 82.1186 72.0622 84.3833V85.9168C72.0622 86.2041 72.1771 86.4797 72.3817 86.6828C72.5863 86.886 72.8638 87.0001 73.1531 87.0001C73.4424 87.0001 73.7199 86.886 73.9245 86.6828C74.1291 86.4797 74.244 86.2041 74.244 85.9168V84.3832C74.2443 81.1939 72.2036 78.3539 69.1665 77.3166Z" fill="#DB2D2E"/>
<path d="M46.5347 77.6253C49.0609 76.7626 50.9061 74.636 51.4422 72.1074C59.424 74.3195 67.3675 68.4839 67.6879 60.3204C69.4973 59.8514 70.8351 58.2331 70.8351 56.3139V45.742C70.8351 45.4547 70.7202 45.1792 70.5156 44.976C70.311 44.7728 70.0336 44.6587 69.7442 44.6587C69.4549 44.6587 69.1774 44.7728 68.9728 44.976C68.7683 45.1792 68.6533 45.4547 68.6533 45.742V56.3139C68.6533 57.0011 68.2673 57.6185 67.6988 57.9742V52.1769C67.7014 48.4574 64.6641 45.4293 60.9278 45.4268H48.8447C45.0875 45.4268 42.0612 48.4421 42.0586 52.1596V59.8042C42.0621 64.8817 45.0495 69.276 49.3655 71.3317C49.0842 73.2684 47.7271 74.9269 45.8252 75.5763L43.2672 76.4499C42.7781 75.9145 42.4455 75.2566 42.3055 74.5472C42.8305 74.2778 43.3316 73.9648 43.8034 73.6115C44.0343 73.4383 44.1865 73.1812 44.2264 72.8966C44.2664 72.6121 44.191 72.3234 44.0166 72.0941C43.9303 71.9806 43.8223 71.885 43.6988 71.8129C43.5753 71.7408 43.4387 71.6936 43.2969 71.6739C43.155 71.6542 43.0106 71.6625 42.8719 71.6982C42.7332 71.734 42.603 71.7965 42.4887 71.8822C41.9471 72.2887 41.3568 72.6268 40.7312 72.8886C35.1443 75.1457 29.3791 71.0609 29.375 65.3895V59.3663C29.377 55.7067 31.8595 52.4827 35.4114 51.5258C35.6906 51.4506 35.9283 51.2683 36.0722 51.019C36.216 50.7698 36.2543 50.474 36.1786 50.1967C36.0211 49.6193 35.4218 49.2784 34.8402 49.4347C30.3406 50.6468 27.1958 54.7303 27.1932 59.3655V65.39C27.196 69.4162 29.5343 72.908 32.9292 74.6003C32.6529 75.9481 31.672 77.0875 30.3305 77.5456L26.3132 78.9176C23.8251 79.7675 22.1533 82.0941 22.1533 84.7071V85.9165C22.1533 86.2038 22.2683 86.4794 22.4728 86.6825C22.6774 86.8857 22.9549 86.9998 23.2442 86.9998C23.5336 86.9998 23.811 86.8857 24.0156 86.6825C24.2202 86.4794 24.3351 86.2038 24.3351 85.9165V84.7071C24.3353 83.8833 24.5944 83.0802 25.0762 82.4096C25.558 81.7391 26.2385 81.2346 27.0229 80.9665L31.0401 79.5944C33.0051 78.9233 34.4736 77.3086 34.99 75.3681C36.7336 75.8113 38.5532 75.7876 40.251 75.3365C40.425 75.9976 40.7093 76.6251 41.0919 77.193L40.7311 77.3162C37.694 78.3536 35.6533 81.1936 35.6533 84.3829V85.9165C35.6533 86.2038 35.7683 86.4794 35.9728 86.6825C36.1774 86.8857 36.4549 86.9998 36.7442 86.9998C37.0336 86.9998 37.311 86.8857 37.5156 86.6825C37.7202 86.4794 37.8351 86.2038 37.8351 85.9165V84.3829C37.8351 82.1182 39.2841 80.1017 41.4406 79.3652L46.5347 77.6253ZM44.2404 59.8046V52.1615C44.242 49.6393 46.2943 47.5936 48.8438 47.5936H60.9268C63.4595 47.5953 65.5186 49.6507 65.5168 52.1755C65.5165 52.5925 65.5201 50.1856 65.5168 59.8256C65.5148 65.6595 60.7359 70.4056 54.8685 70.4056C49.0101 70.4056 44.2445 65.6492 44.2404 59.8046Z" fill="#DB2D2E"/>
<path d="M42.6217 40.8138C40.5767 41.1671 39.0625 42.9407 39.0625 45.0058V56.4251C39.0625 56.7124 39.1774 56.9879 39.382 57.1911C39.5866 57.3943 39.8641 57.5084 40.1534 57.5084C40.4427 57.5084 40.7202 57.3943 40.9248 57.1911C41.1294 56.9879 41.2443 56.7124 41.2443 56.4251V45.0125C41.2443 43.8573 42.1944 42.9174 43.362 42.9174C43.5799 42.9174 43.7928 42.8526 43.9733 42.7314C44.1538 42.6101 44.2936 42.438 44.3747 42.2372C45.6515 39.0745 48.699 37.0311 52.1385 37.0311H58.4657C58.755 37.0311 59.0325 36.917 59.2371 36.7138C59.4417 36.5106 59.5566 36.2351 59.5566 35.9478C59.5566 35.6604 59.4417 35.3849 59.2371 35.1817C59.0325 34.9786 58.755 34.8644 58.4657 34.8644H52.1385C48.0305 34.8644 44.3653 37.1782 42.6217 40.8138ZM83.4479 78.9178L79.4306 77.5457C79.2949 77.4983 79.1511 77.4781 79.0074 77.4861C78.8637 77.4942 78.7231 77.5304 78.5936 77.5926C78.4641 77.6549 78.3482 77.742 78.2528 77.8489C78.1573 77.9557 78.084 78.0803 78.0372 78.2155C77.9904 78.3506 77.971 78.4936 77.9801 78.6362C77.9892 78.7788 78.0266 78.9182 78.0902 79.0463C78.1537 79.1745 78.2422 79.289 78.3505 79.3831C78.4588 79.4771 78.5848 79.549 78.7211 79.5946L82.7384 80.9666C83.5228 81.2347 84.2033 81.7392 84.6851 82.4097C85.167 83.0803 85.426 83.8835 85.4261 84.7072V85.9165C85.4261 86.2038 85.5411 86.4794 85.7457 86.6825C85.9502 86.8857 86.2277 86.9998 86.517 86.9998C86.8064 86.9998 87.0838 86.8857 87.2884 86.6825C87.493 86.4794 87.608 86.2038 87.608 85.9165V84.7071C87.608 82.0941 85.9361 79.7675 83.4479 78.9178ZM83.2443 27.4165H65.3807C62.9745 27.4165 61.017 29.3604 61.017 31.7498V38.5207C61.017 40.9101 62.9745 42.854 65.3807 42.854H77.3312C77.2686 43.6199 77.0208 44.36 76.5975 45.0325C76.1267 45.7802 76.7087 46.742 77.587 46.6882C80.0264 46.5446 81.917 45.1012 82.6952 42.8541H83.2443C85.6505 42.8541 87.608 40.9102 87.608 38.5208V31.7498C87.608 29.3604 85.6505 27.4165 83.2443 27.4165ZM85.4261 38.5207C85.4261 39.7153 84.4473 40.6873 83.2443 40.6873H81.8623C81.6103 40.6873 81.3661 40.7739 81.1712 40.9324C80.9762 41.0909 80.8425 41.3114 80.7928 41.5567C80.5893 42.56 80.0954 43.3523 79.3865 43.8664C79.5363 43.1439 79.5689 42.3976 79.4805 41.6451C79.4496 41.3813 79.3221 41.138 79.1223 40.9614C78.9226 40.7848 78.6644 40.6872 78.397 40.6872H65.3807C64.1777 40.6872 63.1989 39.7152 63.1989 38.5205V31.7498C63.1989 30.5552 64.1777 29.5832 65.3807 29.5832H83.2443C84.4473 29.5832 85.4261 30.5552 85.4261 31.7498V38.5207Z" fill="#DB2D2E"/>
<path d="M72.2477 34.7007C71.849 33.7955 70.5984 33.8293 70.2324 34.7007C69.9334 35.4274 70.4745 36.1998 71.2401 36.1998C72.0118 36.1998 72.5441 35.4205 72.2477 34.7007ZM78.9338 34.7007C78.6653 34.0616 77.8787 33.8412 77.3206 34.2146C76.8429 34.5277 76.6715 35.1939 77.0192 35.7177C77.3535 36.2099 78.0161 36.3509 78.5315 36.017C78.9446 35.7467 79.1397 35.201 78.9338 34.7007ZM26.517 42.9896H27.0661C27.8443 45.2368 29.7349 46.6802 32.1743 46.8236C33.0505 46.8774 33.6358 45.9178 33.1637 45.1679C32.7405 44.4954 32.4927 43.7554 32.4301 42.9894H35.8028C36.0921 42.9894 36.3696 42.8753 36.5742 42.6721C36.7788 42.469 36.8937 42.1934 36.8937 41.9061C36.8937 41.6188 36.7788 41.3432 36.5742 41.1401C36.3696 40.9369 36.0921 40.8228 35.8028 40.8228H31.3641C31.0967 40.8228 30.8385 40.9204 30.6388 41.097C30.439 41.2736 30.3116 41.5169 30.2806 41.7807C30.1924 42.5332 30.225 43.2795 30.3747 44.002C29.6659 43.4879 29.172 42.6956 28.9684 41.6923C28.9186 41.447 28.7849 41.2264 28.5899 41.068C28.395 40.9095 28.1508 40.8229 27.8989 40.8229H26.517C25.314 40.8229 24.3351 39.8509 24.3351 38.6562V26.3333C24.3351 25.1387 25.314 24.1667 26.517 24.1667H44.3806C45.5836 24.1667 46.5624 25.1387 46.5624 26.3333V31.7045C46.5624 31.9918 46.6773 32.2674 46.8819 32.4705C47.0865 32.6737 47.364 32.7878 47.6533 32.7878C47.9427 32.7878 48.2201 32.6737 48.4247 32.4705C48.6293 32.2674 48.7442 31.9918 48.7442 31.7045V26.3333C48.7442 23.9439 46.7867 22 44.3806 22H26.517C24.1108 22 22.1533 23.9439 22.1533 26.3333V38.6562C22.1533 41.0457 24.1108 42.9896 26.517 42.9896Z" fill="#DB2D2E"/>
<path d="M41.9262 29.1771C41.9262 28.8898 41.8113 28.6142 41.6067 28.4111C41.4021 28.2079 41.1246 28.0938 40.8353 28.0938H30.0626C29.7733 28.0938 29.4958 28.2079 29.2912 28.4111C29.0866 28.6142 28.9717 28.8898 28.9717 29.1771C28.9717 29.4644 29.0866 29.74 29.2912 29.9431C29.4958 30.1463 29.7733 30.2604 30.0626 30.2604H40.8353C41.1246 30.2604 41.4021 30.1463 41.6067 29.9431C41.8113 29.74 41.9262 29.4644 41.9262 29.1771ZM30.0626 34.5938C29.7733 34.5938 29.4958 34.7079 29.2912 34.9111C29.0866 35.1142 28.9717 35.3898 28.9717 35.6771C28.9717 35.9644 29.0866 36.24 29.2912 36.4431C29.4958 36.6463 29.7733 36.7604 30.0626 36.7604H35.449C35.7383 36.7604 36.0158 36.6463 36.2203 36.4431C36.4249 36.24 36.5399 35.9644 36.5399 35.6771C36.5399 35.3898 36.4249 35.1142 36.2203 34.9111C36.0158 34.7079 35.7383 34.5938 35.449 34.5938H30.0626Z" fill="#DB2D2E"/>
</g>
<defs>
<clipPath id="clip0_37_8988">
<rect width="65.4545" height="65" fill="white" transform="translate(22.1533 22)"/>
</clipPath>
</defs>
</svg>
