<svg width="20" height="20" viewBox="0 0 24 24" fill="none" xmlns="http://www.w3.org/2000/svg">
<g clip-path="url(#clip0_1814_3646)">
<rect width="24" height="24" rx="12" fill="white"/>
<path fill-rule="evenodd" clip-rule="evenodd" d="M10.2857 14.4H0V9.6H10.2857V0H13.7143V9.6H24V14.4H13.7143V24H10.2857V14.4Z" fill="#F93939"/>
<path fill-rule="evenodd" clip-rule="evenodd" d="M17.1429 17.6H16V19.2H17.1429V20.8H18.2857V19.2H19.4286V17.6H18.2857V16H17.1429V17.6ZM17.1429 4.8H16V6.4H17.1429V8H18.2857V6.4H19.4286V4.8H18.2857V3.2H17.1429V4.8ZM5.7143 4.8H4.57144V6.4H5.7143V8H6.85716V6.4H8.00001V4.8H6.85716V3.2H5.7143V4.8ZM5.7143 17.6H4.57144V19.2H5.7143V20.8H6.85716V19.2H8.00001V17.6H6.85716V16H5.7143V17.6Z" fill="#F93939"/>
</g>
<defs>
<clipPath id="clip0_1814_3646">
<rect width="24" height="24" rx="12" fill="white"/>
</clipPath>
</defs>
</svg>
